<svg id="Layer_1" data-name="Layer 1" xmlns="http://www.w3.org/2000/svg" viewBox="0 0 470 470"><defs><style>.cls-1{fill:#ff001f;}.cls-2{fill:#322;}.cls-3{fill:#44c5e5;}.cls-4{fill:#2cff00;}</style></defs><title>iss</title><rect class="cls-1" x="26.82" y="56.25" width="172.85" height="95.09" transform="translate(106.57 -49.67) rotate(45)"/><rect class="cls-1" x="281.34" y="308.64" width="172.85" height="97.17" transform="translate(360.32 -155.42) rotate(45)"/><polygon class="cls-2" points="116 270 199 356 366 189 279 103 116 270"/><path d="M27.3,421.49a7.5,7.5,0,1,0-10.61,10.6L37.91,453.3a7.5,7.5,0,0,0,10.6-10.6Z" transform="translate(0 0)"/><polygon class="cls-2" points="292 107 322 76 370 80 391 104 394 145 362 179 292 107"/><path class="cls-3" d="M12,298,174,459s13-33,2-63-24-52-49-71-60-31-74-33S21,289,12,298Z" transform="translate(0 0)"/><polygon class="cls-4" points="49 344 44 406 63 425 128 420 49 344"/><path d="M467.8,377.32l-122-122a7.5,7.5,0,0,0-10.61,0l-30.48,30.48-10.61-10.6,80.11-80.11a7.5,7.5,0,0,0,0-10.61l-3.72-3.72,30-30.05a7.49,7.49,0,0,0,2.17-5.95l-3.14-36.56A29,29,0,0,0,392,91.93L378.07,78a28.93,28.93,0,0,0-16.25-7.56l-36.56-3.15h-.18a5.28,5.28,0,0,0-.56,0h-.3l-.48,0-.3,0-.47.09-.28.07a4,4,0,0,0-.49.15,2.5,2.5,0,0,0-.25.09,5.16,5.16,0,0,0-.49.21l-.22.1a4.76,4.76,0,0,0-.49.28,1.18,1.18,0,0,0-.19.11l-.5.35-.15.11a7.7,7.7,0,0,0-.6.54L289.26,99.53l-3.72-3.72a7.49,7.49,0,0,0-10.6,0l-80.12,80.11-10.6-10.6,30.48-30.49a7.5,7.5,0,0,0,0-10.61l-122-122a7.5,7.5,0,0,0-10.61,0L10.49,73.78a7.49,7.49,0,0,0,0,10.6l122,122a7.48,7.48,0,0,0,10.6,0l30.49-30.49,10.61,10.61-76.95,76.94a7.52,7.52,0,0,0,0,10.61l26.67,26.66-12,12.05a151.76,151.76,0,0,0-89-28.56A153.8,153.8,0,0,0,6.2,286.56a7.5,7.5,0,0,0-4,12.69l40.26,40.26-6.71,65.3a7.5,7.5,0,0,0,2.16,6.07l21.21,21.21a7.46,7.46,0,0,0,5.3,2.2,6.62,6.62,0,0,0,.77,0l65.3-6.71,40.26,40.26a7.51,7.51,0,0,0,5.31,2.2,7.29,7.29,0,0,0,2.25-.35,7.47,7.47,0,0,0,5.13-5.85A153.24,153.24,0,0,0,160.1,352.37l12.73-12.73,23.09,23.09a7.52,7.52,0,0,0,10.61,0l76.94-77,10.61,10.61-30.49,30.49a7.49,7.49,0,0,0,0,10.6l122,122a7.48,7.48,0,0,0,10.6,0l71.58-71.58a7.5,7.5,0,0,0,0-10.61Zm-269-247.79-13.25,13.25L135.13,92.37l13.26-13.25,50.4,50.41ZM26.4,79.08,39.65,65.83l34.5,34.49a7.5,7.5,0,1,0,10.61-10.6l-34.5-34.5L63.51,42,98,76.46a7.5,7.5,0,0,0,10.61-10.6l-34.5-34.5L87.37,18.11l50.41,50.4L119.23,87.07,95.36,110.93,76.81,129.49,26.4,79.08ZM137.82,190.5,87.41,140.09l13.26-13.25,50.4,50.41L137.82,190.5ZM168.31,160l-6.63,6.63-50.41-50.41L124.53,103l50.4,50.41L168.31,160Zm156.3-74.62,34,34a7.5,7.5,0,0,0,10.61-10.6L344.46,84l16.07,1.38a14.63,14.63,0,0,1,6.93,3.23l13.91,13.91a14.58,14.58,0,0,1,3.23,6.93l2.85,33.08-27.59,27.58-60-60,24.75-24.75ZM67.2,419,51,402.79l5.09-49.61,60.69,60.69ZM170.47,446.3,23.69,299.53q4.59-.3,9.18-.3a136.87,136.87,0,0,1,84.93,29.23l.15.12a138.84,138.84,0,0,1,12.43,11A138.16,138.16,0,0,1,170.47,446.3ZM151.08,340.17Q146.34,334.38,141,329c-2.36-2.36-4.8-4.63-7.28-6.82l10.84-10.84L162.22,329l-11.14,11.14Zm50.14,6.65-78-78.05,157.06-157,78,78L201.22,346.82Zm78.28-14.64,13.25-13.25,34.5,34.49a7.5,7.5,0,1,0,10.61-10.6l-34.5-34.5L310,301.7l6.63-6.63,34.5,34.49A7.5,7.5,0,1,0,361.72,319l-34.5-34.5,13.25-13.25,50.41,50.4-61,61L279.5,332.18ZM390.92,443.6l-50.41-50.41,13.26-13.25,50.4,50.41Zm23.86-23.86-50.41-50.41,13.26-13.25L428,406.49Zm23.86-23.86-50.41-50.41,13.26-13.25,50.4,50.41Z" transform="translate(0 0)"/></svg>